<?xml version="1.0"?>
<!-- Converted with SVG Converter - Version 0.9.5 (Compiled Mon May 30 09:08:51 2011) - Copyright (C) 2011 Nokia -->
<svg xmlns="http://www.w3.org/2000/svg" width="48" version="1.0" height="48" viewBox="0 0 48 48" xmlns:xlink="http://www.w3.org/1999/xlink" baseProfile="tiny" id="svg2">
 <metadata id="metadata50"/>
 <defs id="defs4">
  <linearGradient id="linearGradient3957">
   <stop offset="0" style="stop-color:#fffeff;stop-opacity:0.33333334" id="stop7"/>
   <stop offset="1" style="stop-color:#fffeff;stop-opacity:0.21568628" id="stop9"/>
  </linearGradient>
  <linearGradient id="linearGradient2536">
   <stop offset="0" style="stop-color:#a40000;stop-opacity:1" id="stop12"/>
   <stop offset="1" style="stop-color:#ff1717;stop-opacity:1" id="stop14"/>
  </linearGradient>
  <linearGradient id="linearGradient2479">
   <stop offset="0" style="stop-color:#ffe69b;stop-opacity:1" id="stop17"/>
   <stop offset="1" style="stop-color:#ffffff;stop-opacity:1" id="stop19"/>
  </linearGradient>
  <linearGradient id="linearGradient4126">
   <stop offset="0" style="stop-color:#000000;stop-opacity:1" id="stop22"/>
   <stop offset="1" style="stop-color:#000000;stop-opacity:0" id="stop24"/>
  </linearGradient>
  <radialGradient fx="23.857143" fy="40" cx="23.857143" cy="40" gradientTransform="matrix(1,0,0,0.5,0,20)" r="17.142857" id="radialGradient26" gradientUnits="userSpaceOnUse">
   <stop offset="0" style="stop-color:#000000;stop-opacity:1" id="stop22"/>
   <stop offset="1" style="stop-color:#000000;stop-opacity:0" id="stop24"/>
  </radialGradient>
  <linearGradient id="linearGradient28" y1="53.835983" x1="43.93581" y2="-8.5626707" gradientUnits="userSpaceOnUse" x2="20.064686">
   <stop offset="0" style="stop-color:#ffe69b;stop-opacity:1" id="stop17"/>
   <stop offset="1" style="stop-color:#ffffff;stop-opacity:1" id="stop19"/>
  </linearGradient>
  <linearGradient id="linearGradient30" y1="66.288063" x1="36.917976" y2="5.5410109" gradientUnits="userSpaceOnUse" x2="19.071495">
   <stop offset="0" style="stop-color:#a40000;stop-opacity:1" id="stop12"/>
   <stop offset="1" style="stop-color:#ff1717;stop-opacity:1" id="stop14"/>
  </linearGradient>
  <linearGradient id="linearGradient32" y1="33.955299" x1="21.993773" y2="15.814602" gradientUnits="userSpaceOnUse" x2="20.917078">
   <stop offset="0" style="stop-color:#fffeff;stop-opacity:0.33333334" id="stop7"/>
   <stop offset="1" style="stop-color:#fffeff;stop-opacity:0.21568628" id="stop9"/>
  </linearGradient>
  <radialGradient fx="23.857143" fy="40" cx="23.857143" cy="40" gradientTransform="matrix(1,0,0,0.5,0,20)" r="17.142857" id="radialGradient34" gradientUnits="userSpaceOnUse">
   <stop offset="0" style="stop-color:#000000;stop-opacity:1" id="stop22"/>
   <stop offset="1" style="stop-color:#000000;stop-opacity:0" id="stop24"/>
  </radialGradient>
 </defs>
 <path style="fill:#d51007;fill-opacity:1;fill-rule:nonzero;stroke:#b20000;stroke-width:0.90897834;stroke-linecap:butt;stroke-linejoin:miter;stroke-miterlimit:4;stroke-dasharray:none;stroke-opacity:1" id="path36" d="M 43.543815,24.004329 C 43.650539,31.688923 38.710966,39.100038 31.607429,42.010953 C 24.555952,45.084902 15.782625,43.438481 10.347466,37.987644 C 4.8303993,32.7409 2.9458458,24.143045 5.7259262,17.061174 C 8.3974828,9.7878213 15.738645,4.5588852 23.495723,4.4683544 C 31.186031,4.1632465 38.730607,8.9217868 41.817393,15.961933 C 42.958571,18.478987 43.546964,21.241304 43.543815,24.004329 z"/>
 <path style="opacity:1;fill:#cc0000;fill-opacity:0;stroke:#ffffff;stroke-width:0.90897726999999995;stroke-linecap:butt;stroke-linejoin:miter;stroke-miterlimit:4;stroke-dasharray:none;stroke-opacity:1" id="path38" d="M 42.669949,24.004325 C 42.781251,31.731959 37.529131,39.146198 30.20438,41.617319 C 23.1658,44.181914 14.70935,41.978533 9.883032,36.221506 C 4.7159367,30.4436 3.863922,21.371591 7.8038871,14.711923 C 11.433823,8.1842265 19.238064,4.384631 26.611147,5.5168904 C 34.32686,6.4966488 40.967838,12.814935 42.335887,20.470328 C 42.559035,21.634195 42.67008,22.819325 42.669949,24.004325 z"/>
 <g style="fill:#ffffff;fill-opacity:1" id="g40" transform="matrix(0.9090086,0,0,0.9089483,2.1839424,3.098483)">
  <path style="fill:#ffffff;fill-opacity:1;fill-rule:nonzero;stroke:none;stroke-width:0.73876642999999986;stroke-miterlimit:4;stroke-dasharray:none;stroke-opacity:0.86274510000000004" id="path42" d="M 9.9999992,19.000043 C 19.333333,19.000043 28.666668,19.000043 38.000002,19.000043 C 38.000002,21.666711 38.000002,24.333377 38.000002,27.000045 C 28.666668,27.000045 19.333333,27.000045 9.9999992,27.000045 C 9.9999992,24.333377 9.9999992,21.666711 9.9999992,19.000043 z"/>
 </g>
</svg>
