<?xml version="1.0"?>
<!-- Converted with SVG Converter - Version 0.9.5 (Compiled Mon May 30 09:08:51 2011) - Copyright (C) 2011 Nokia -->
<svg xmlns="http://www.w3.org/2000/svg" width="48" version="1.0" height="48" viewBox="0 0 48 48" baseProfile="tiny" xmlns:xlink="http://www.w3.org/1999/xlink" id="svg4318">
 <metadata id="metadata4419"/>
 <defs id="defs4320"/>
 <g id="g5950" transform="matrix(0.95024211,0,0,0.93252999,1.3780967,1.1038823)">
  <path style="font-size:59.90107727px;font-style:normal;font-variant:normal;font-weight:bold;font-stretch:normal;text-align:start;line-height:125%;writing-mode:lr-tb;text-anchor:start;fill:#75a1d0;fill-opacity:1;stroke:#3465a4;stroke-width:1.59846711px;stroke-linecap:butt;stroke-linejoin:miter;stroke-opacity:1;font-family:Bitstream Vera Sans" id="path4411" d="m 29.585405,45.545365 0,-14.57416 15.791696,-0.06487 0,-11.294053 -15.777565,0 -0.01409,-16.0808412 -11.1038,0.018018 0.0071,16.0339912 -15.8093603,0.118925 -0.056514,11.250809 15.8800113,-0.04685 0.0106,14.595783 11.072008,0.04325 z"/>
 </g>
 <path style="font-size:59.90107727px;font-style:normal;font-variant:normal;font-weight:bold;font-stretch:normal;text-align:start;line-height:125%;writing-mode:lr-tb;text-anchor:start;fill:#729fcf;fill-opacity:1;stroke:#ffffff;stroke-width:1.50426841;stroke-linecap:butt;stroke-linejoin:miter;stroke-miterlimit:4;stroke-opacity:1;stroke-dasharray:none;font-family:Bitstream Vera Sans" id="path4413" d="m 27.964022,42.057526 0,-13.601715 15.042233,0 -0.01007,-7.564696 -15.018736,0 0,-15.048267 -7.511391,0.02689 0.01338,15.021381 -15.0777049,0.02689 -0.040287,7.487402 15.1351559,0.0134 -0.02013,13.591632 7.487507,0.04705 z"/>
</svg>
