<?xml version="1.0"?>
<!-- Converted with SVG Converter - Version 0.9.5 (Compiled Mon May 30 09:08:51 2011) - Copyright (C) 2011 Nokia -->
<svg xmlns="http://www.w3.org/2000/svg" width="48" version="1.1" height="48" viewBox="0 0 48 48" xmlns:xlink="http://www.w3.org/1999/xlink" baseProfile="tiny" id="svg1307">
 <metadata id="metadata39"/>
 <defs id="defs1309"/>
 <g id="g2987" transform="matrix(0.81360605,0,0,0.80559963,4.1936425,4.2489513)">
  <path style="color:#000000;fill:#b3b3b3;fill-opacity:1;fill-rule:evenodd;stroke:none;stroke-width:1;marker:none;visibility:visible;display:inline;overflow:visible" id="path2827" d="m 28.673014,5.9381694 0,36.6071876 14.066978,0 0,-36.6071876 -14.066978,0 z"/>
  <path style="color:#000000;fill:#b3b3b3;fill-opacity:1;stroke:#3465a4;stroke-width:1.75076962;stroke-linecap:square;stroke-linejoin:round;stroke-miterlimit:4;stroke-opacity:1;stroke-dasharray:none;stroke-dashoffset:0;marker:none;visibility:visible;display:inline;overflow:visible" id="path2762" d="m 28.673014,5.9419974 0,36.7676736 14.066978,0 0,-36.7676736 -14.066978,0 z"/>
  <path style="color:#000000;fill:#75a1d0;fill-opacity:1;stroke:#ffffff;stroke-width:1.7507689;stroke-linecap:square;stroke-linejoin:miter;stroke-miterlimit:4;stroke-opacity:1;stroke-dasharray:none;stroke-dashoffset:0;marker:none;visibility:visible;display:inline;overflow:visible" id="path2811" d="m 30.431386,7.6813688 0,33.1207882 10.550233,0 0,-33.1207882 -10.550233,0 z"/>
  <path style="color:#000000;fill:#b3b3b3;fill-opacity:1;fill-rule:evenodd;stroke:none;stroke-width:1;marker:none;visibility:visible;display:inline;overflow:visible" id="path2850" d="m 5.8628998,5.9381694 0,36.6071876 14.0669772,0 0,-36.6071876 -14.0669772,0 z"/>
  <path style="color:#000000;fill:#b3b3b3;fill-opacity:1;stroke:#3465a4;stroke-width:1.75076962;stroke-linecap:square;stroke-linejoin:round;stroke-miterlimit:4;stroke-opacity:1;stroke-dasharray:none;stroke-dashoffset:0;marker:none;visibility:visible;display:inline;overflow:visible" id="path2852" d="m 5.8628998,5.9419974 0,36.7676736 14.0669772,0 0,-36.7676736 -14.0669772,0 z"/>
  <path style="color:#000000;fill:#75a1d0;fill-opacity:1;stroke:#ffffff;stroke-width:1.75076938;stroke-linecap:square;stroke-linejoin:miter;stroke-miterlimit:4;stroke-opacity:1;stroke-dasharray:none;stroke-dashoffset:0;marker:none;visibility:visible;display:inline;overflow:visible" id="path2854" d="m 7.621272,7.6813688 0,33.1207882 10.550233,0 0,-33.1207882 -10.550233,0 z"/>
 </g>
</svg>
