<?xml version="1.0"?>
<!-- Converted with SVG Converter - Version 0.9.5 (Compiled Mon May 30 09:08:51 2011) - Copyright (C) 2011 Nokia -->
<svg xmlns="http://www.w3.org/2000/svg" width="48" version="1.0" height="48" viewBox="0 0 48 48" xmlns:xlink="http://www.w3.org/1999/xlink" baseProfile="tiny" id="svg2">
 <metadata id="metadata3933"/>
 <defs id="defs4"/>
 <g id="g2984" transform="matrix(0.87776033,0,0,0.89445246,3.4594429,2.0910463)">
  <path style="fill:#75a1d0;fill-opacity:1;fill-rule:evenodd;stroke:none;stroke-width:1;marker:none;visibility:visible;display:inline;overflow:visible" id="path90" d="m 7.9300021,43.512951 c 0,-12.896992 0,-25.793981 0,-38.6909726 C 19.00285,11.270475 30.075699,17.718971 41.148547,24.167466 30.075699,30.615962 19.00285,37.064456 7.9300021,43.512951 z"/>
  <path style="fill:#75a1d0;fill-opacity:1;fill-rule:evenodd;stroke:#3465a4;stroke-width:1.38466609;stroke-linecap:square;stroke-linejoin:round;stroke-miterlimit:4;stroke-opacity:1;stroke-dasharray:none;stroke-dashoffset:0;marker:none;visibility:visible;display:inline;overflow:visible" id="path92" d="m 7.9300021,43.512951 c 0,-12.896992 0,-25.793981 0,-38.6909726 C 19.00285,11.270475 30.075699,17.718971 41.148547,24.167466 30.075699,30.615962 19.00285,37.064456 7.9300021,43.512951 z"/>
  <path style="fill:#ffffff;fill-opacity:1;fill-rule:evenodd;stroke:none;stroke-width:3;marker:none;visibility:visible;display:inline;overflow:visible" id="path94" d="m 8.6190893,6.0385505 c 0,12.0859355 0,24.1718715 0,36.2578075 C 18.998468,36.253391 29.377845,30.210423 39.757223,24.167457 29.377845,18.124487 18.998468,12.081519 8.6190893,6.0385505 z M 9.997264,8.4731275 C 18.984112,13.704571 27.970959,18.936014 36.957805,24.167457 27.970959,29.398898 18.984112,34.630339 9.997264,39.861781 c 0,-10.462885 0,-20.925768 0,-31.3886535 z"/>
 </g>
</svg>
