<?xml version="1.0" encoding="UTF-8"?>
<!DOCTYPE svg PUBLIC "-//W3C//DTD SVG 1.1 Tiny//EN" "http://www.w3.org/Graphics/SVG/1.1/DTD/svg11-tiny.dtd">
<svg xmlns="http://www.w3.org/2000/svg" baseProfile="tiny" height="44" version="1.0" viewBox="0 0 44 44" width="44">
<g transform="translate(-332.50001,-744.36218)">
<path d="M 334.50001,786.36218 C 361.16668,786.36218 374.50001,779.69551 374.50001,766.36218 C 374.50001,753.02884 367.83334,746.36218 354.5,746.36218 C 337.16668,746.36218 334.50001,759.69551 334.50001,786.36218 z" style="fill:#d51007;fill-opacity:1;fill-rule:evenodd;stroke:none;stroke-width:1px;stroke-linecap:butt;stroke-linejoin:miter;stroke-opacity:1"/>
<path d="M 22,3 C 9.6328365,3 5.1342653,10.147835 3.65625,24.4375 C 8.7466004,18.221644 18.635568,14 30,14 C 33.600582,14 37.050485,14.442312 40.25,15.21875 C 38.237613,7.0740716 32.157065,3 22,3 z" style="fill:#e34842;fill-opacity:1;fill-rule:evenodd;stroke:none;stroke-width:1px;stroke-linecap:butt;stroke-linejoin:miter;stroke-opacity:1" transform="translate(332.50001,744.36218)"/>
<path d="M 351.83334,755.69551 C 347.41734,755.69551 343.83334,758.68218 343.83334,762.36218 L 343.83334,769.15384 C 343.40708,769.07102 342.96044,769.02884 342.50001,769.02884 C 339.55601,769.02884 337.16668,770.82084 337.16668,773.02885 C 337.16668,775.23684 339.55601,777.02884 342.50001,777.02884 C 345.444,777.02884 347.83334,775.23684 347.83334,773.02885 L 347.83334,762.36218 C 347.83334,760.89018 349.62534,759.69551 351.83334,759.69551 C 354.04134,759.69551 355.83334,760.89018 355.83334,762.36218 C 355.83334,763.83418 355.83334,765.92484 355.83334,767.02884 C 355.83334,768.13285 356.72934,769.02884 357.83334,769.02884 C 358.93734,769.02884 359.83334,768.13285 359.83334,767.02884 C 359.83334,765.92484 359.83334,763.83418 359.83334,762.36218 C 359.83334,760.89018 361.62534,759.69551 363.83334,759.69551 C 366.04134,759.69551 367.83334,760.89018 367.83334,762.36218 C 367.83334,763.83418 367.83334,765.92484 367.83334,767.02884 C 367.83334,768.13285 368.72934,769.02884 369.83334,769.02884 C 370.93734,769.02884 371.83334,768.13285 371.83334,767.02884 C 371.83334,765.92484 371.83334,766.04218 371.83334,762.36218 C 371.83334,758.68218 368.24934,755.69551 363.83334,755.69551 C 361.44351,755.69551 359.29966,756.56791 357.83334,757.95385 C 356.36706,756.56868 354.22241,755.69551 351.83334,755.69551 z M 351.83334,757.02885 C 355.51334,757.02885 358.50001,759.41818 358.50001,762.36218 C 358.50001,762.73017 358.20134,763.02885 357.83334,763.02885 C 357.46534,763.02885 357.16667,762.73017 357.16667,762.36218 C 357.16667,760.15417 354.77734,758.36218 351.83334,758.36218 C 348.88934,758.36218 346.50001,760.15417 346.50001,762.36218 C 346.50001,764.57018 346.50001,771.55685 346.50001,773.02885 C 346.50001,774.50085 344.70801,775.69551 342.50001,775.69551 C 340.292,775.69551 338.50001,774.50085 338.50001,773.02885 C 338.50001,771.55685 340.292,770.36218 342.50001,770.36218 C 343.52481,770.36218 344.45867,770.62253 345.16668,771.04551 L 345.16668,762.36218 C 345.16668,759.41818 348.15334,757.02885 351.83334,757.02885 z" style="fill:#ffffff;fill-opacity:1;stroke:none;stroke-width:5;stroke-miterlimit:4.5;stroke-dasharray:none;stroke-opacity:1"/>
<path d="M 200,295.00003 A 0,5 0 1 1 200,295.00003 A 0,5 0 1 1 200,295.00003 z" style="opacity:1;fill:#ff00ff;fill-opacity:0.76499999;stroke:none;stroke-width:5;stroke-miterlimit:4;stroke-dasharray:none;stroke-opacity:1" transform="translate(352.5,452.36216)"/>
<path d="M 160,280.00003 A 0,10 0 1 1 160,280.00003 A 0,10 0 1 1 160,280.00003 z" style="opacity:1;fill:#ff00ff;fill-opacity:0.76499999;stroke:none;stroke-width:5;stroke-miterlimit:4;stroke-dasharray:none;stroke-opacity:1" transform="translate(352.5,452.36216)"/>
<path d="M 40.1875,27.0625 C 33.695259,35.013813 21.549509,38.820299 9.125,35.8125 C 7.0144357,35.301562 4.9942588,34.642214 3.09375,33.8125 C 3.0315676,36.094228 3,38.464506 3,41 C 24.684475,41 37.064198,36.343081 40.1875,27.0625 z" style="fill:#bd0000;fill-opacity:1;fill-rule:evenodd;stroke:none;stroke-width:1px;stroke-linecap:butt;stroke-linejoin:miter;stroke-opacity:1" transform="translate(332.50001,744.36218)"/>
</g>
</svg>
