<?xml version="1.0" encoding="UTF-8" standalone="no"?>
<!-- Created with Inkscape (http://www.inkscape.org/) -->
<svg
   xmlns:svg="http://www.w3.org/2000/svg"
   xmlns="http://www.w3.org/2000/svg"
   version="1.0"
   width="44"
   height="44"
   viewBox="0 0 44 44"
   id="svg2">
  <defs
     id="defs4" />
  <g
     id="g4785">
    <path
       d="M 2,42 C 28.66667,42 42,35.33333 42,22 C 42,8.66666 35.33333,2 21.99999,2 C 4.66667,2 2,15.33333 2,42 z"
       id="path3375"
       style="fill:#d51007;fill-opacity:1;fill-rule:evenodd;stroke:none" />
    <path
       d="M 22,3.125 C 19.904487,3.125 18.065779,3.3321169 16.4375,3.71875 C 16.430607,3.7240924 16.41296,3.713593 16.40625,3.71875 C 16.327648,3.7791601 16.235919,3.871515 16.1875,3.90625 C 16.597229,3.6123135 16.090744,4.0110269 15.78125,4.5625 C 15.471756,5.1139731 15.108008,5.8807018 14.8125,6.8125 C 14.387163,8.1536763 14.004394,9.8295899 13.71875,11.625 C 15.297264,10.608987 17.268664,10.03125 19.34375,10.03125 C 19.738552,10.03125 20.121563,10.047042 20.5,10.09375 C 20.94423,9.7558258 21.408021,9.4183839 21.875,9.09375 C 24.614662,7.1891945 27.591024,5.5575451 30.75,4.46875 C 28.308781,3.600934 25.419664,3.125 22,3.125 z M 11.28125,6.03125 C 9.2456729,7.5410383 7.7198513,9.6407927 6.53125,12.4375 C 5.1595527,15.665021 4.316144,19.889427 3.8125,24.96875 C 4.0942198,25.161857 4.3769608,25.323587 4.65625,25.5 C 4.8945658,25.242406 5.1553752,24.992274 5.4375,24.78125 C 6.5408612,23.955957 7.9580503,23.465911 9.5,23.375 C 9.0925034,18.349649 9.760558,11.030752 11.28125,6.03125 z M 35.375,7 C 31.697514,7.6465407 27.99484,9.3524926 24.625,11.59375 C 24.875959,11.751391 25.108222,11.919032 25.34375,12.09375 C 26.995305,10.868174 29.03428,10.03125 31.34375,10.03125 C 35.408497,10.03125 39.008937,12.313277 40.21875,15.59375 C 39.489301,12.319018 38.160194,9.7226943 36.21875,7.78125 C 35.949028,7.5115279 35.669448,7.246723 35.375,7 z M 19.34375,16.65625 C 18.957134,16.65625 18.607254,16.698812 18.28125,16.78125 C 17.712492,17.331246 17.177217,17.880667 16.65625,18.4375 L 16.65625,25.375 C 18.398973,24.623923 20.217143,23.929424 22.09375,23.3125 C 22.049145,23.098153 22.03125,22.882573 22.03125,22.65625 L 22.03125,18 C 22.03125,17.793937 21.906012,17.529406 21.4375,17.21875 C 20.968988,16.908094 20.214276,16.65625 19.34375,16.65625 z M 31.34375,16.65625 C 30.473224,16.65625 29.718512,16.908094 29.25,17.21875 C 28.781488,17.529406 28.65625,17.793937 28.65625,18 L 28.65625,21.625 C 30.424331,21.307264 32.222513,21.123093 34.03125,21.0625 L 34.03125,18 C 34.03125,17.793937 33.906012,17.529406 33.4375,17.21875 C 32.968988,16.908094 32.214276,16.65625 31.34375,16.65625 z M 40.65625,18.25 L 40.65625,21.53125 C 40.729245,21.544868 40.802019,21.548288 40.875,21.5625 C 40.861478,20.391012 40.775447,19.302119 40.65625,18.25 z M 34.8125,24.78125 C 32.292664,24.842061 29.765942,25.194642 27.28125,25.78125 C 30.975672,26.296386 34.527637,26.965162 37.71875,27.9375 C 38.324561,28.122092 38.91168,28.331097 39.5,28.53125 C 39.992179,27.498152 40.368587,26.394241 40.59375,25.21875 C 40.272341,25.153732 39.946684,25.112683 39.625,25.0625 C 39.02898,25.628686 38.218151,25.96875 37.34375,25.96875 C 36.337283,25.96875 35.423248,25.504485 34.8125,24.78125 z M 16.65625,28.1875 L 16.65625,28.65625 C 16.65625,29.202779 16.53136,29.730192 16.34375,30.21875 C 19.999035,31.799088 22.928582,34.809062 24.6875,38.46875 C 27.278635,37.785777 29.554556,36.972722 31.5,36 C 33.975917,34.762041 35.92969,33.312028 37.40625,31.65625 C 31.567242,29.778428 24.373202,28.640742 16.65625,28.1875 z M 4.84375,32 C 4.3663808,32.327594 3.8665469,32.636225 3.3125,32.9375 C 3.2234896,35.431026 3.1666432,38.050948 3.15625,40.84375 C 3.5963574,40.840218 4.0049555,40.819772 4.4375,40.8125 C 5.9903023,38.96271 7.2917185,36.263086 8.15625,33.75 C 7.1419627,33.51796 6.2101047,33.109145 5.4375,32.53125 C 5.2259067,32.372982 5.0315994,32.18494 4.84375,32 z M 14.625,32.46875 C 14.601888,32.486573 14.585872,32.513768 14.5625,32.53125 C 13.742396,33.144673 12.744357,33.559816 11.65625,33.78125 C 11.834499,36.045018 11.558773,38.445015 11.15625,40.53125 C 13.046565,40.398398 14.852259,40.218883 16.5625,40 C 16.353823,37.357263 15.798414,34.631557 14.625,32.46875 z M 19.875,37.6875 C 19.960452,38.286648 20.006578,38.88017 20.0625,39.46875 C 20.365922,39.415244 20.640795,39.369133 20.9375,39.3125 C 20.611013,38.744847 20.26512,38.206497 19.875,37.6875 z"
       id="path4110"
       style="fill:#ff5555;stroke:none;stroke-width:1px;stroke-linecap:butt;stroke-linejoin:miter;stroke-opacity:1" />
    <path
       d="M 19.33333,11.33333 C 14.91733,11.33333 11.33333,14.32 11.33333,18 L 11.33333,24.79166 C 10.90707,24.70886 10.46043,24.66666 10,24.66666 C 7.056,24.66666 4.66667,26.45866 4.66667,28.66667 C 4.66667,30.87466 7.056,32.66666 10,32.66666 C 12.94399,32.66666 15.33333,30.87466 15.33333,28.66667 L 15.33333,18 C 15.33333,16.528 17.12533,15.33333 19.33333,15.33333 C 21.54133,15.33333 23.33333,16.528 23.33333,18 C 23.33333,19.472 23.33333,21.56266 23.33333,22.66666 C 23.33333,23.77067 24.22933,24.66666 25.33333,24.66666 C 26.43733,24.66666 27.33333,23.77067 27.33333,22.66666 C 27.33333,21.56266 27.33333,19.472 27.33333,18 C 27.33333,16.528 29.12533,15.33333 31.33333,15.33333 C 33.54133,15.33333 35.33333,16.528 35.33333,18 C 35.33333,19.472 35.33333,21.56266 35.33333,22.66666 C 35.33333,23.77067 36.22933,24.66666 37.33333,24.66666 C 38.43733,24.66666 39.33333,23.77067 39.33333,22.66666 C 39.33333,21.56266 39.33333,21.68 39.33333,18 C 39.33333,14.32 35.74933,11.33333 31.33333,11.33333 C 28.9435,11.33333 26.79965,12.20573 25.33333,13.59167 C 23.86705,12.2065 21.7224,11.33333 19.33333,11.33333 L 19.33333,11.33333 z M 19.33333,12.66667 C 23.01333,12.66667 26,15.056 26,18 C 26,18.36799 25.70133,18.66667 25.33333,18.66667 C 24.96533,18.66667 24.66666,18.36799 24.66666,18 C 24.66666,15.79199 22.27733,14 19.33333,14 C 16.38933,14 14,15.79199 14,18 C 14,20.208 14,27.19467 14,28.66667 C 14,30.13867 12.208,31.33333 10,31.33333 C 7.79199,31.33333 6,30.13867 6,28.66667 C 6,27.19467 7.79199,26 10,26 C 11.0248,26 11.95866,26.26035 12.66667,26.68333 L 12.66667,18 C 12.66667,15.056 15.65333,12.66667 19.33333,12.66667 z"
       id="path3371"
       style="fill:#ffffff;fill-opacity:1;stroke:none" />
  </g>
</svg>
