<?xml version="1.0" encoding="UTF-8" standalone="no"?>
<!-- Created with Inkscape (http://www.inkscape.org/) -->

<svg
   xmlns:svg="http://www.w3.org/2000/svg"
   xmlns="http://www.w3.org/2000/svg"
   version="1.2"
   width="48"
   height="48"
   viewBox="0 0 48 48"
   id="svg2">
  <defs
     id="defs4" />
  <path
     d="M 8.753081,-14.639798 -1.7830631,-3.7926421 49.800183,47.707166 60.336327,36.86001 8.753081,-14.639798 z"
     id="path90"
     style="fill:#d51007;fill-opacity:1;fill-rule:evenodd;stroke:none;stroke-width:1;marker:none;visibility:visible;display:inline;overflow:visible" />
  <path
     d="M 8.7435635,-14.647066 -1.8387711,-3.7523561 49.721446,47.72446 60.30378,36.82975 8.7435635,-14.647066 z"
     id="path92"
     style="fill:none;stroke:#d51007;stroke-width:1.61992049;stroke-linecap:square;stroke-linejoin:round;stroke-miterlimit:4;stroke-opacity:1;stroke-dasharray:none;stroke-dashoffset:0;marker:none;visibility:visible;display:inline;overflow:visible" />
  <path
     d="M 11.10453,-11.528251 1.3178443,-1.4536364 48.982814,46.129698 58.7695,36.055085 11.10453,-11.528251 z"
     id="path94"
     style="fill:none;stroke:#000000;stroke-width:1.66300189;stroke-linecap:square;stroke-linejoin:miter;stroke-miterlimit:4;stroke-opacity:1;stroke-dasharray:none;stroke-dashoffset:0;marker:none;visibility:visible;display:inline;overflow:visible" />
  <path
     d="M 32.215305,40.5 A 3.6076527,2.5 0 1 1 25,40.5 a 3.6076527,2.5 0 1 1 7.215305,0 z"
     id="path2905"
     style="fill:#ffffff" />
  <path
     d="m 30,38 a 2.5,5 0 1 1 -5,0 2.5,5 0 1 1 5,0 z"
     id="path2907"
     style="fill:#ffffff" />
  <flowRoot
     id="flowRoot2919"
     xml:space="preserve"
     style="font-size:40px;font-style:normal;font-weight:normal;fill:#000000;fill-opacity:1;stroke:none;font-family:Bitstream Vera Sans"><flowRegion
       id="flowRegion2921"><rect
         width="85.715721"
         height="64.430611"
         x="-3.2598822"
         y="-5.8839335"
         id="rect2923" /></flowRegion><flowPara
       id="flowPara2925"></flowPara></flowRoot>  <flowRoot
     id="flowRoot2927"
     xml:space="preserve"
     style="font-size:40px;font-style:normal;font-weight:normal;fill:#000000;fill-opacity:1;stroke:none;font-family:Bitstream Vera Sans"><flowRegion
       id="flowRegion2929"><rect
         width="91.084938"
         height="71.52565"
         x="-4.2186708"
         y="-13.170729"
         id="rect2931" /></flowRegion><flowPara
       id="flowPara2933"></flowPara></flowRoot></svg>
