<?xml version="1.0" encoding="UTF-8" standalone="no"?>
<!-- Created with Inkscape (http://www.inkscape.org/) -->

<svg
   xmlns:dc="http://purl.org/dc/elements/1.1/"
   xmlns:cc="http://creativecommons.org/ns#"
   xmlns:rdf="http://www.w3.org/1999/02/22-rdf-syntax-ns#"
   xmlns:svg="http://www.w3.org/2000/svg"
   xmlns="http://www.w3.org/2000/svg"
   xmlns:sodipodi="http://sodipodi.sourceforge.net/DTD/sodipodi-0.dtd"
   xmlns:inkscape="http://www.inkscape.org/namespaces/inkscape"
   version="1.0"
   width="48"
   height="48"
   viewBox="0 0 48 48"
   id="svg2"
   inkscape:version="0.48.1 "
   sodipodi:docname="play.svg">
  <metadata
     id="metadata3933">
    <rdf:RDF>
      <cc:Work
         rdf:about="">
        <dc:format>image/svg+xml</dc:format>
        <dc:type
           rdf:resource="http://purl.org/dc/dcmitype/StillImage" />
      </cc:Work>
    </rdf:RDF>
  </metadata>
  <sodipodi:namedview
     pagecolor="#ffffff"
     bordercolor="#666666"
     borderopacity="1"
     objecttolerance="10"
     gridtolerance="10"
     guidetolerance="10"
     inkscape:pageopacity="0"
     inkscape:pageshadow="2"
     inkscape:window-width="797"
     inkscape:window-height="662"
     id="namedview3931"
     showgrid="false"
     inkscape:zoom="5.4375"
     inkscape:cx="24.712635"
     inkscape:cy="24.128701"
     inkscape:window-x="153"
     inkscape:window-y="179"
     inkscape:window-maximized="0"
     inkscape:current-layer="svg2" />
  <defs
     id="defs4" />
  <g
     id="g2984"
     transform="matrix(0.87776033,0,0,0.89445246,3.4594429,2.0910463)">
    <path
       inkscape:connector-curvature="0"
       style="fill:#75a1d0;fill-opacity:1;fill-rule:evenodd;stroke:none;stroke-width:1;marker:none;visibility:visible;display:inline;overflow:visible"
       id="path90"
       d="m 7.9300021,43.512951 c 0,-12.896992 0,-25.793981 0,-38.6909726 C 19.00285,11.270475 30.075699,17.718971 41.148547,24.167466 30.075699,30.615962 19.00285,37.064456 7.9300021,43.512951 z" />
    <path
       inkscape:connector-curvature="0"
       style="fill:#75a1d0;fill-opacity:1;fill-rule:evenodd;stroke:#3465a4;stroke-width:1.38466609;stroke-linecap:square;stroke-linejoin:round;stroke-miterlimit:4;stroke-opacity:1;stroke-dasharray:none;stroke-dashoffset:0;marker:none;visibility:visible;display:inline;overflow:visible"
       id="path92"
       d="m 7.9300021,43.512951 c 0,-12.896992 0,-25.793981 0,-38.6909726 C 19.00285,11.270475 30.075699,17.718971 41.148547,24.167466 30.075699,30.615962 19.00285,37.064456 7.9300021,43.512951 z" />
    <path
       inkscape:connector-curvature="0"
       style="fill:#ffffff;fill-opacity:1;fill-rule:evenodd;stroke:none;stroke-width:3;marker:none;visibility:visible;display:inline;overflow:visible"
       id="path94"
       d="m 8.6190893,6.0385505 c 0,12.0859355 0,24.1718715 0,36.2578075 C 18.998468,36.253391 29.377845,30.210423 39.757223,24.167457 29.377845,18.124487 18.998468,12.081519 8.6190893,6.0385505 z M 9.997264,8.4731275 C 18.984112,13.704571 27.970959,18.936014 36.957805,24.167457 27.970959,29.398898 18.984112,34.630339 9.997264,39.861781 c 0,-10.462885 0,-20.925768 0,-31.3886535 z" />
  </g>
</svg>
