<?xml version="1.0"?>
<!-- Converted with SVG Converter - Version 0.9.5 (Compiled Mon May 30 09:08:51 2011) - Copyright (C) 2011 Nokia -->
<svg xmlns="http://www.w3.org/2000/svg" width="48" version="1.0" height="48" viewBox="0 0 48 48" xmlns:xlink="http://www.w3.org/1999/xlink" baseProfile="tiny">
 <defs>
  <linearGradient id="linearGradient3510">
   <stop offset="0" style="stop-color:#ffffff;stop-opacity:1"/>
   <stop offset="1" style="stop-color:#ffffff;stop-opacity:0"/>
  </linearGradient>
  <linearGradient id="linearGradient4068">
   <stop offset="0" style="stop-color:#eaeae9;stop-opacity:1"/>
   <stop offset="1" style="stop-color:#a5a7a2;stop-opacity:1"/>
  </linearGradient>
  <linearGradient id="linearGradient3670">
   <stop offset="0" style="stop-color:#d3d7cf;stop-opacity:1"/>
   <stop offset="1" style="stop-color:#555753;stop-opacity:1"/>
  </linearGradient>
  <radialGradient fx="6.8797626" fy="7.1986876" cx="6.8797626" cy="7.1986876" gradientTransform="matrix(1.240749,0,0,1.157631,-1.713645,-1.134736)" r="9.375" gradientUnits="userSpaceOnUse">
   <stop offset="0" style="stop-color:#d3d7cf;stop-opacity:1"/>
   <stop offset="1" style="stop-color:#555753;stop-opacity:1"/>
  </radialGradient>
  <linearGradient id="linearGradient3692">
   <stop offset="0" style="stop-color:#2e3436;stop-opacity:1"/>
   <stop offset="1" style="stop-color:#babdb6;stop-opacity:1"/>
  </linearGradient>
  <linearGradient y1="-0.51990569" x1="-0.51990569" y2="19.269905" gradientUnits="userSpaceOnUse" x2="-0.51990569">
   <stop offset="0" style="stop-color:#2e3436;stop-opacity:1"/>
   <stop offset="1" style="stop-color:#babdb6;stop-opacity:1"/>
  </linearGradient>
  <radialGradient fx="12.704856" fy="13.847466" cx="12.704856" cy="13.847466" gradientTransform="matrix(6.370852e-2,-1.424475,1.547293,6.92112e-2,-9.530629,30.98681)" r="9.375" xlink:href="#linearGradient3628" gradientUnits="userSpaceOnUse"/>
  <linearGradient id="linearGradient3730">
   <stop offset="0" style="stop-color:#eeeeec;stop-opacity:1"/>
   <stop offset="1" style="stop-color:#888a85;stop-opacity:1"/>
  </linearGradient>
  <radialGradient fx="-1.0016617" fy="0.99004257" cx="-1.0016617" cy="0.99004257" gradientTransform="matrix(-0.310032,2.110862,-2.082775,-0.305867,17.75288,16.41459)" r="9.9205227" gradientUnits="userSpaceOnUse">
   <stop offset="0" style="stop-color:#eeeeec;stop-opacity:1"/>
   <stop offset="1" style="stop-color:#888a85;stop-opacity:1"/>
  </radialGradient>
  <linearGradient id="linearGradient1557">
   <stop offset="0" style="stop-color:#2e3436;stop-opacity:1"/>
   <stop offset="1" style="stop-color:#888a85;stop-opacity:1"/>
  </linearGradient>
  <linearGradient y1="34.950001" x1="17.0625" y2="5.375" gradientUnits="userSpaceOnUse" x2="20.3125">
   <stop offset="0" style="stop-color:#2e3436;stop-opacity:1"/>
   <stop offset="1" style="stop-color:#888a85;stop-opacity:1"/>
  </linearGradient>
  <linearGradient id="linearGradient3676">
   <stop offset="0" style="stop-color:#eeeeec;stop-opacity:1"/>
   <stop offset="1" style="stop-color:#555753;stop-opacity:1"/>
  </linearGradient>
  <radialGradient fx="-1.0016617" fy="0.99004257" cx="-1.0016617" cy="0.99004257" gradientTransform="matrix(-0.127582,1.416065,-1.630141,-0.146854,17.48751,15.56121)" r="9.9205227" gradientUnits="userSpaceOnUse">
   <stop offset="0" style="stop-color:#eeeeec;stop-opacity:1"/>
   <stop offset="1" style="stop-color:#555753;stop-opacity:1"/>
  </radialGradient>
  <linearGradient id="linearGradient3788">
   <stop offset="0" style="stop-color:#cccdcb;stop-opacity:1"/>
   <stop offset="1" style="stop-color:#888a85;stop-opacity:1"/>
  </linearGradient>
  <linearGradient id="linearGradient3674">
   <stop offset="0" style="stop-color:#ffffff;stop-opacity:0"/>
   <stop offset="1" style="stop-color:#ffffff;stop-opacity:1"/>
  </linearGradient>
  <linearGradient id="linearGradient3657">
   <stop offset="0" style="stop-color:#fafafa;stop-opacity:1"/>
   <stop offset="1" style="stop-color:#bfbfbf;stop-opacity:1"/>
  </linearGradient>
  <linearGradient id="linearGradient3609">
   <stop offset="0" style="stop-color:#000000;stop-opacity:1"/>
   <stop offset="1" style="stop-color:#000000;stop-opacity:0"/>
  </linearGradient>
  <linearGradient gradientTransform="matrix(0.997993,0,0,1,-97.71685,-9.352993)" y1="35.01503" x1="58.015995" y2="40.9986" gradientUnits="userSpaceOnUse" x2="57.954308">
   <stop offset="0" style="stop-color:#eeeeec;stop-opacity:1"/>
   <stop offset="1" style="stop-color:#8a8c87;stop-opacity:1"/>
  </linearGradient>
  <linearGradient id="linearGradient4608">
   <stop offset="0" style="stop-color:#eeeeec;stop-opacity:1"/>
   <stop offset="1" style="stop-color:#8a8c87;stop-opacity:1"/>
  </linearGradient>
  <radialGradient fx="6.4081554" fy="17.403807" cx="6.4081554" cy="17.403807" gradientTransform="matrix(1,0,0,0.416,0,10.16382)" r="5.524272" gradientUnits="userSpaceOnUse">
   <stop offset="0" style="stop-color:#000000;stop-opacity:1"/>
   <stop offset="1" style="stop-color:#000000;stop-opacity:0"/>
  </radialGradient>
  <linearGradient gradientTransform="translate(-64.70027,0)" y1="8.2899637" x1="10.4375" y2="18.984955" gradientUnits="userSpaceOnUse" x2="10.4375">
   <stop offset="0" style="stop-color:#fafafa;stop-opacity:1"/>
   <stop offset="1" style="stop-color:#bfbfbf;stop-opacity:1"/>
  </linearGradient>
  <radialGradient fx="5.0822492" fy="12.516305" cx="5.0822492" cy="12.516305" gradientTransform="matrix(1.525791,0,-1.480441e-8,1.768964,-8.162983e-2,6.066255)" r="2.9831069" gradientUnits="userSpaceOnUse">
   <stop offset="0" style="stop-color:#ffffff;stop-opacity:0"/>
   <stop offset="1" style="stop-color:#ffffff;stop-opacity:1"/>
  </radialGradient>
  <linearGradient gradientTransform="translate(-64.70027,0)" y1="11.030003" x1="8.0536165" y2="11.030003" gradientUnits="userSpaceOnUse" x2="10.4375">
   <stop offset="0" style="stop-color:#cccdcb;stop-opacity:1"/>
   <stop offset="1" style="stop-color:#888a85;stop-opacity:1"/>
  </linearGradient>
  <linearGradient y1="20.301662" x1="7.5763841" y2="27.345011" gradientUnits="userSpaceOnUse" x2="7.3215322">
   <stop offset="0" style="stop-color:#eaeae9;stop-opacity:1"/>
   <stop offset="1" style="stop-color:#a5a7a2;stop-opacity:1"/>
  </linearGradient>
  <linearGradient xlink:href="#linearGradient3281" y1="24.665476" x1="4.6831217" y2="24.317278" gradientUnits="userSpaceOnUse" x2="8.3712559"/>
  <linearGradient y1="22.107626" x1="9.485774" y2="22.637957" gradientUnits="userSpaceOnUse" x2="7.378232">
   <stop offset="0" style="stop-color:#ffffff;stop-opacity:1"/>
   <stop offset="1" style="stop-color:#ffffff;stop-opacity:0"/>
  </linearGradient>
 </defs>
 <path style="fill:#888a85;fill-opacity:1;fill-rule:nonzero;stroke:#2e3436;stroke-width:1;stroke-linecap:round;stroke-linejoin:miter;marker:none;marker-start:none;marker-mid:none;marker-end:none;stroke-miterlimit:4;stroke-dasharray:none;stroke-dashoffset:0;stroke-opacity:1;visibility:visible;display:inline;overflow:visible" d="M 15.077287,24.875526 C 15.077287,30.609158 12.099462,35.257186 8.4261269,35.257186 C 4.7527927,35.257186 1.7749669,30.609158 1.7749669,24.875526 C 1.7749669,19.141894 4.7527927,14.493866 8.4261269,14.493866 C 12.099462,14.493866 15.077287,19.141894 15.077287,24.875526 z"/>
 <path style="fill:#8a8c87;fill-opacity:1;fill-rule:evenodd;stroke:#2e3436;stroke-width:1.00000024;stroke-linecap:round;stroke-linejoin:miter;marker:none;marker-start:none;marker-mid:none;marker-end:none;stroke-miterlimit:4;stroke-dashoffset:0;stroke-opacity:1;visibility:visible;display:inline;overflow:visible" d="M 9.4806798,18.24261 L 16.570367,12.118401 L 16.341232,37.201244 L 9.1369775,31.676187 C 6.6164956,29.613972 6.1582259,20.41939 9.4806798,18.24261 z"/>
 <path style="fill:none;fill-opacity:0.94117647;fill-rule:evenodd;stroke:#2e3436;stroke-width:1.89999878;stroke-linecap:round;stroke-linejoin:miter;marker:none;marker-start:none;marker-mid:none;marker-end:none;stroke-miterlimit:4;stroke-dasharray:none;stroke-dashoffset:0;stroke-opacity:1;visibility:visible;display:inline;overflow:visible" d="M 21.834281,9.011674 C 19.706318,9.0858818 17.73559,10.043164 16.075588,11.558569 C 15.673236,10.919525 15.092497,10.520945 14.430247,10.520945 C 14.392404,10.520945 14.334446,10.522234 14.293135,10.520945 C 14.26243,10.520643 14.217946,10.517078 14.190301,10.520945 C 13.084517,10.675617 12.236459,11.977393 12.236459,13.539487 C 12.236459,14.450709 12.526136,15.249778 12.990574,15.803394 C 11.840598,18.188315 11.139565,21.028506 11.139565,24.104384 C 11.139565,27.17376 11.810777,30.023487 12.956296,32.405375 C 12.503473,32.963098 12.236459,33.766195 12.236459,34.669281 C 12.236459,36.335516 13.219276,37.687825 14.430247,37.687823 C 15.092497,37.687823 15.673236,37.289241 16.075588,36.650199 C 17.808879,38.232508 19.873047,39.197094 22.108505,39.197094 C 24.343964,39.197094 26.408131,38.232508 28.141422,36.650199 C 28.543774,37.289243 29.124514,37.687825 29.786763,37.687823 C 30.997733,37.687823 31.980551,36.335518 31.980551,34.669281 C 31.980551,33.758059 31.690874,32.95899 31.226436,32.405375 C 32.376412,30.020453 33.077445,27.180263 33.077445,24.104384 C 33.077445,21.028506 32.376412,18.188315 31.226436,15.803394 C 31.690874,15.249778 31.980551,14.450709 31.980551,13.539487 C 31.980551,11.873252 30.997733,10.520945 29.786763,10.520945 C 29.74892,10.520945 29.690962,10.522234 29.649651,10.520945 C 29.618946,10.520643 29.574462,10.517078 29.546817,10.520945 C 28.993926,10.59828 28.491659,10.971364 28.141422,11.511404 C 28.134087,11.504726 28.114491,11.518058 28.107144,11.511404 C 26.380493,9.9474658 24.329786,9.011674 22.108505,9.011674 C 22.013982,9.011674 21.928232,9.0083974 21.834281,9.011674 z"/>
 <path style="fill:#888a85;fill-opacity:1;fill-rule:evenodd;stroke:none;stroke-width:1.09104455;stroke-linecap:round;stroke-linejoin:miter;marker:none;marker-start:none;marker-mid:none;marker-end:none;stroke-miterlimit:4;stroke-dasharray:none;stroke-dashoffset:0;stroke-opacity:1;visibility:visible;display:inline;overflow:visible" d="M 21.834281,9.011674 C 19.706318,9.0858818 17.73559,10.043164 16.075588,11.558569 C 15.673236,10.919525 15.092497,10.520945 14.430247,10.520945 C 14.392404,10.520945 14.334446,10.522234 14.293135,10.520945 C 14.26243,10.520643 14.217946,10.517078 14.190301,10.520945 C 13.084517,10.675617 12.236459,11.977393 12.236459,13.539487 C 12.236459,14.450709 12.526136,15.249778 12.990574,15.803394 C 11.840598,18.188315 11.139565,21.028506 11.139565,24.104384 C 11.139565,27.17376 11.810777,30.023487 12.956296,32.405375 C 12.503473,32.963098 12.236459,33.766195 12.236459,34.669281 C 12.236459,36.335516 13.219276,37.687825 14.430247,37.687823 C 15.092497,37.687823 15.673236,37.289241 16.075588,36.650199 C 17.808879,38.232508 19.873047,39.197094 22.108505,39.197094 C 24.343964,39.197094 26.408131,38.232508 28.141422,36.650199 C 28.543774,37.289243 29.124514,37.687825 29.786763,37.687823 C 30.997733,37.687823 31.980551,36.335518 31.980551,34.669281 C 31.980551,33.758059 31.690874,32.95899 31.226436,32.405375 C 32.376412,30.020453 33.077445,27.180263 33.077445,24.104384 C 33.077445,21.028506 32.376412,18.188315 31.226436,15.803394 C 31.690874,15.249778 31.980551,14.450709 31.980551,13.539487 C 31.980551,11.873252 30.997733,10.520945 29.786763,10.520945 C 29.74892,10.520945 29.690962,10.522234 29.649651,10.520945 C 29.618946,10.520643 29.574462,10.517078 29.546817,10.520945 C 28.993926,10.59828 28.491659,10.971364 28.141422,11.511404 C 28.134087,11.504726 28.114491,11.518058 28.107144,11.511404 C 26.380493,9.9474658 24.329786,9.011674 22.108505,9.011674 C 22.013982,9.011674 21.928232,9.0083974 21.834281,9.011674 z"/>
 <path style="fill:#888a85;fill-opacity:1;fill-rule:evenodd;stroke:#2e3436;stroke-width:1;stroke-linecap:round;stroke-linejoin:miter;marker:none;marker-start:none;marker-mid:none;marker-end:none;stroke-miterlimit:4;stroke-dasharray:none;stroke-dashoffset:0;stroke-opacity:1;visibility:visible;display:inline;overflow:visible" d="M 31.532122,24.095442 C 31.532122,31.217701 27.632595,36.991432 22.822283,36.991432 C 18.011972,36.991432 14.112444,31.217701 14.112444,24.095442 C 14.112444,16.973184 18.011972,11.199453 22.822283,11.199453 C 27.632595,11.199453 31.532122,16.973184 31.532122,24.095442 L 31.532122,24.095442 z"/>
 <path style="fill:#2e3436;fill-opacity:1;fill-rule:evenodd;stroke:#2e3436;stroke-width:1;stroke-linecap:round;stroke-linejoin:miter;marker:none;marker-start:none;marker-mid:none;marker-end:none;stroke-miterlimit:4;stroke-dasharray:none;stroke-dashoffset:0;stroke-opacity:1;visibility:visible;display:inline;overflow:visible" d="M 23.697785,24.293043 C 23.697785,26.793685 22.006855,28.820856 19.920986,28.820856 C 17.835118,28.820856 16.144188,26.793685 16.144188,24.293043 C 16.144188,21.792401 17.835118,19.76523 19.920986,19.76523 C 22.006855,19.76523 23.697785,21.792401 23.697785,24.293043 L 23.697785,24.293043 z"/>
 <path style="fill:none;fill-opacity:1;fill-rule:evenodd;stroke:#000000;stroke-width:0.99999982;stroke-linecap:round;stroke-linejoin:miter;marker:none;marker-start:none;marker-mid:none;marker-end:none;stroke-miterlimit:4;stroke-dasharray:none;stroke-dashoffset:0;stroke-opacity:1;visibility:visible;display:inline;overflow:visible" d="M 36.087935,32.865672 C 37.005198,30.700908 37.568925,27.707589 37.568925,24.427683 C 37.568925,21.147777 37.005198,18.154458 36.087935,15.989694"/>
</svg>
